<?xml version="1.0" encoding="utf-8"?>

<!DOCTYPE svg PUBLIC "-//W3C//DTD SVG 1.1//EN" "http://www.w3.org/Graphics/SVG/1.1/DTD/svg11.dtd">
<!-- Uploaded to: SVG Repo, www.svgrepo.com, Generator: SVG Repo Mixer Tools -->
<svg height="800px" width="800px" version="1.1" id="_x32_" xmlns="http://www.w3.org/2000/svg" xmlns:xlink="http://www.w3.org/1999/xlink" 
	 viewBox="0 0 512 512"  xml:space="preserve" fill="currentColor">
<g>
	<path class="st0" d="M205.148,68.636h34.322c15.322,0,28.143-10.106,32.561-23.959h25.118c14.42,0.026,26.072,11.687,26.099,26.098
		v14.687c-0.026,14.412-11.67,26.055-26.099,26.09h-14.677c-24.148,0-43.698,19.576-43.698,43.706v0.842h17.599v-0.842
		c0.026-14.42,11.678-26.082,26.098-26.107h14.677c24.139,0,43.698-19.558,43.698-43.689V70.775
		c0-24.138-19.55-43.698-43.698-43.698h-24.156C269.668,11.601,255.935,0,239.471,0h-34.322v12.262h-21.57v12.254h21.57v19.61
		h-21.57v12.254h21.57V68.636z"/>
	<path class="st0" d="M91.172,497.365c0,8.077,6.557,14.635,14.635,14.635h40.432c8.096,0,14.652-6.558,14.652-14.635v-30.121
		H91.172V497.365z"/>
	<path class="st0" d="M351.108,497.365c0,8.077,6.557,14.635,14.652,14.635h40.432c8.078,0,14.627-6.558,14.627-14.635v-30.121
		h-69.711V497.365z"/>
	<path class="st0" d="M426.577,312.725l-20.548-74.506c-11.111-40.2-47.686-68.043-89.38-68.043H195.351
		c-41.705,0-78.269,27.843-89.373,68.043l-20.555,74.506c-27.593,10.57-47.187,37.296-47.187,68.594
		c0,40.56,32.878,73.456,73.449,73.456h77.204c1.022,4.16,3.137,7.924,6.067,10.828c4.133,4.142,9.951,6.737,16.267,6.737h89.553
		c6.316,0,12.134-2.595,16.267-6.737c2.93-2.905,5.036-6.669,6.05-10.828h77.204c40.57,0,73.466-32.896,73.466-73.456
		C473.763,350.021,454.17,323.304,426.577,312.725z M111.685,412.926c-17.462,0-31.607-14.162-31.607-31.607
		c0-17.462,14.145-31.624,31.607-31.624c17.461,0,31.615,14.162,31.615,31.624C143.3,398.772,129.147,412.926,111.685,412.926z
		 M302.77,451.304c-0.541,0.532-1.186,0.824-1.993,0.824h-89.553c-0.817,0-1.452-0.292-1.994-0.824
		c-0.524-0.525-0.816-1.178-0.824-1.994v-41.334c0.009-0.808,0.301-1.444,0.824-1.994c0.542-0.532,1.177-0.824,1.994-0.824h89.553
		c0.799,0,1.452,0.292,1.993,0.824c0.516,0.55,0.808,1.186,0.808,1.994v41.334h0.009
		C303.586,450.126,303.285,450.779,302.77,451.304z M132.043,291.104c-2.552,0-4.958-1.203-6.496-3.231
		c-1.547-2.045-2.063-4.674-1.367-7.132l9.608-34.838c7.614-27.602,32.939-46.886,61.564-46.886h121.297
		c28.625,0,53.949,19.284,61.564,46.877l9.608,34.847c0.696,2.458,0.188,5.087-1.366,7.132c-1.547,2.028-3.945,3.231-6.497,3.231
		H132.043z M400.297,412.926c-17.444,0-31.616-14.162-31.616-31.607c0-17.462,14.171-31.624,31.616-31.624
		c17.471,0,31.624,14.162,31.624,31.624C431.921,398.772,417.768,412.926,400.297,412.926z"/>
</g>
</svg>