<?xml version="1.0" ?>

<!DOCTYPE svg  PUBLIC '-//W3C//DTD SVG 1.1//EN'  'http://www.w3.org/Graphics/SVG/1.1/DTD/svg11.dtd'>

<!-- Uploaded to: SVG Repo, www.svgrepo.com, Generator: SVG Repo Mixer Tools -->
<svg width="800px" height="800px" fill="currentColor" viewBox="0 0 800 800" enable-background="new 0 0 800 800" id="GUIDE" version="1.1" xml:space="preserve" xmlns="http://www.w3.org/2000/svg" xmlns:cc="http://creativecommons.org/ns#" xmlns:dc="http://purl.org/dc/elements/1.1/" xmlns:inkscape="http://www.inkscape.org/namespaces/inkscape" xmlns:rdf="http://www.w3.org/1999/02/22-rdf-syntax-ns#" xmlns:sodipodi="http://sodipodi.sourceforge.net/DTD/sodipodi-0.dtd" xmlns:svg="http://www.w3.org/2000/svg" xmlns:xlink="http://www.w3.org/1999/xlink">

<g>

<circle cx="613.408" cy="513.237" r="31.625"/>

<circle cx="448.77" cy="475.278" r="21.847"/>

<circle cx="614.938" cy="55.237" r="21.847"/>

<circle cx="541.934" cy="461.338" r="13.94"/>

<circle cx="530.022" cy="84.947" r="13.94"/>

<circle cx="175.157" cy="436.462" r="31.625"/>

<circle cx="184.935" cy="330.604" r="21.847"/>

<circle cx="163.088" cy="252.067" r="13.94"/>

<path d="M245.063,113.968H113.695c-29.138,0-52.843,23.705-52.843,52.842c0,22.063,13.593,41.011,32.843,48.912v294.011   c0,11.046,8.954,20,20,20c42.822,0,71.236,0.005,71.236,0.005c0.002,0,0.003,0,0.004,0c11.044,0,19.998-8.952,20-19.996   c0.002-11.047-8.951-20.002-19.996-20.004c0,0-19.795-0.004-51.244-0.004V199.651c0-11.046-8.955-20-20-20   c-7.082,0-12.843-5.761-12.843-12.842s5.761-12.842,12.843-12.842h131.368c7.081,0,12.843,5.761,12.843,12.842   s-5.762,12.842-12.843,12.842h-60.128c-11.046,0-20,8.954-20,20s8.954,20,20,20h40.128v461.275   c0,25.189-20.493,45.683-45.684,45.683s-45.685-20.493-45.685-45.683V572.894c0-11.045-8.955-20-20-20c-11.046,0-20,8.955-20,20   v108.033c0,47.246,38.438,85.683,85.685,85.683c47.246,0,85.684-38.437,85.684-85.683V215.709   c19.248-7.901,32.843-26.838,32.843-48.899C297.906,137.672,274.201,113.968,245.063,113.968z"/>

<path d="M415.716,529.666c-0.004,0-0.006,0-0.009,0c-11.041,0-19.996,8.949-20,19.991c-0.005,11.046,8.946,20.004,19.992,20.009   c1.913,0.001,3.894,0.05,5.884,0.146c0.328,0.016,0.654,0.023,0.979,0.023c10.604,0,19.445-8.332,19.961-19.037   c0.531-11.033-7.981-20.408-19.015-20.939C420.884,529.731,418.263,529.667,415.716,529.666z"/>

<path d="M729.317,564.068c-7.789-4.601-17.696-3.399-24.162,2.929c-18.298,17.914-40.612,24.799-70.215,21.668   c-29.165-3.084-61.032-15.01-94.771-27.636c-17.016-6.368-34.609-12.952-51.983-18.358c-10.545-3.283-21.758,2.607-25.039,13.154   c-3.282,10.547,2.607,21.758,13.154,25.039c16.296,5.07,33.353,11.454,49.848,17.627c34.594,12.947,70.366,26.334,104.585,29.952   c20.577,2.176,39.141,0.676,55.921-4.573c-26.632,60.858-87.657,102.739-156.847,102.739c-86.079,0-159.042-64.296-169.718-149.56   c-0.886-7.074-1.335-14.307-1.335-21.493c0-71.431,45.024-135.972,112.038-160.604c7.869-2.893,13.1-10.388,13.1-18.772V202.536   c0.137-0.944,0.231-1.902,0.231-2.885c0-11.046-8.954-20-20-20c-7.081,0-12.842-5.761-12.842-12.842s5.761-12.842,12.842-12.842   h131.368c7.082,0,12.844,5.761,12.844,12.842s-5.762,12.842-12.844,12.842h-65.684c-11.046,0-20,8.954-20,20s8.954,20,20,20h45.551   l0.362,156.572c0.02,8.368,5.246,15.84,13.1,18.727c54.691,20.104,95.002,65.971,107.831,122.695   c2.1,9.289,10.35,15.594,19.488,15.594c1.461,0,2.945-0.162,4.43-0.498c10.773-2.436,17.532-13.145,15.096-23.918   c-7.751-34.276-24.197-66.387-47.561-92.861c-20.059-22.73-44.885-40.949-72.415-53.243l-0.341-146.954   c19.324-7.866,32.986-26.841,32.986-48.956c0-29.137-23.705-52.842-52.844-52.842H464.124c-29.138,0-52.842,23.705-52.842,52.842   c0,21.974,13.484,40.851,32.61,48.808v147.105c-34.523,15.364-64.151,39.615-86.263,70.751   c-25.432,35.809-38.874,78.024-38.874,122.083c0,8.842,0.554,17.745,1.645,26.464c13.178,105.232,103.204,184.589,209.409,184.589   c51.406,0,100.938-18.696,139.47-52.646c38.104-33.571,62.83-79.622,69.646-129.701C740.129,576.286,736.4,568.252,729.317,564.068   z"/>

</g>

</svg>